<?xml version="1.0" standalone="no"?>
<!DOCTYPE svg PUBLIC "-//W3C//DTD SVG 20010904//EN"
 "http://www.w3.org/TR/2001/REC-SVG-20010904/DTD/svg10.dtd">
<svg version="1.0" xmlns="http://www.w3.org/2000/svg"
 width="100.000000pt" height="100.000000pt" viewBox="0 0 100.000000 100.000000"
 preserveAspectRatio="xMidYMid meet">
<metadata>
Created by potrace 1.11, written by Peter Selinger 2001-2013
</metadata>
<g transform="translate(0.000000,100.000000) scale(0.100000,-0.100000)"
fill="#000000" stroke="none">
<path d="M201 959 c-59 -36 -64 -108 -10 -153 l29 -25 0 -276 0 -277 -29 -27
c-55 -51 -50 -120 10 -155 60 -35 139 8 139 75 0 31 -9 25 328 219 141 81 166
92 183 82 31 -20 75 -14 108 14 59 50 30 146 -48 159 -21 4 -42 0 -55 -9 -21
-13 -38 -6 -269 127 -239 137 -247 143 -247 173 0 31 -39 83 -64 85 -6 0 -18
2 -28 4 -9 2 -30 -6 -47 -16z m259 -234 c328 -188 338 -195 342 -220 5 -22
-14 -35 -241 -165 -201 -116 -249 -140 -266 -132 -20 9 -20 17 -20 292 0 265
1 283 19 296 10 7 22 12 25 10 3 -2 67 -38 141 -81z"/>
<path d="M404 621 c-99 -61 -98 -188 3 -239 121 -62 246 76 174 191 -38 63
-118 84 -177 48z"/>
<path d="M418 960 c-56 -7 -58 -9 -48 -36 8 -20 15 -21 74 -18 159 8 305 -73
376 -208 18 -35 34 -65 36 -67 2 -2 15 0 29 3 l26 7 -36 68 c-90 170 -275 272
-457 251z"/>
<path d="M96 777 c-80 -104 -108 -251 -76 -386 12 -47 58 -142 88 -179 l18
-23 18 20 c18 20 18 22 -8 61 -48 73 -68 138 -69 225 -1 96 11 141 57 218 30
50 34 61 23 78 -16 26 -22 24 -51 -14z"/>
<path d="M831 325 c-24 -54 -99 -136 -155 -169 -64 -38 -147 -58 -228 -55 -65
2 -72 0 -79 -19 -11 -28 -1 -33 73 -38 119 -8 240 37 338 124 47 42 104 128
115 175 6 24 4 27 -18 27 -21 0 -30 -9 -46 -45z"/>
</g>
</svg>
